<svg width="57" height="47" viewBox="0 0 57 47" fill="none" xmlns="http://www.w3.org/2000/svg">
<path d="M53.6126 3.06682H51.2569V0.829671C51.2569 0.370388 50.8865 0 50.4273 0H45.4048C44.9455 0 44.5751 0.370388 44.5751 0.829671V3.06682H17.0329V0.829671C17.0329 0.370388 16.6625 0 16.2033 0H11.1808C10.7215 0 10.3511 0.370388 10.3511 0.829671V3.06682H8.41027C6.38054 3.06682 4.72119 4.72617 4.72119 6.7559V27.0384C4.72119 27.4977 5.09158 27.8681 5.55086 27.8681C6.01015 27.8681 6.38054 27.4977 6.38054 27.0384V6.7559C6.38054 5.64473 7.28429 4.72617 8.41027 4.72617H53.6274C54.5164 4.72617 55.2423 5.45213 55.2423 6.34107V33.898C55.2423 34.787 54.5164 35.5129 53.6274 35.5129H51.8495V32.3572C51.8495 31.8979 51.4792 31.5276 51.0199 31.5276H42.0713C41.612 31.5276 41.2416 31.8979 41.2416 32.3572V35.5129H27.8483L31.004 34.6536C32.6337 34.2092 34.0709 33.2758 35.1376 31.972L40.5008 25.4532C40.6045 25.3198 40.6786 25.1569 40.6934 24.9939L41.1675 18.7713C41.212 18.1639 40.8416 17.5565 40.2786 17.3194C40.5304 17.1713 40.7082 16.9046 40.7082 16.5934C40.7082 16.1342 40.3378 15.7638 39.8786 15.7638H36.2339C35.7746 15.7638 35.4043 16.1342 35.4043 16.5934C35.4043 17.0527 35.7746 17.4231 36.2339 17.4231H38.96C38.8711 17.4824 38.7822 17.5565 38.7081 17.6305L35.6561 20.6825C35.0635 21.2752 34.5746 22.0159 34.056 22.6678C33.7745 23.0234 33.819 23.5568 34.1894 23.8383C34.545 24.1198 35.0783 24.0753 35.3598 23.7049L36.3228 22.5197L38.7822 24.9791L33.9079 30.9201C33.0486 31.9572 31.9226 32.698 30.6188 33.0536L17.4626 36.8463C16.4403 37.1723 16.9589 38.7576 17.9663 38.4316L20.8554 37.4982V44.4764H19.6997C19.2405 44.4764 18.8701 44.8468 18.8701 45.306C18.8701 45.7653 19.2405 46.1357 19.6997 46.1357H24.7963C25.2556 46.1357 25.626 45.7653 25.626 45.306C25.626 44.8468 25.2556 44.4764 24.7963 44.4764H22.5295V37.1871H53.6571C55.4646 37.1871 56.9313 35.7204 56.9313 33.9129V6.35588C56.8868 4.53357 55.4201 3.06682 53.6126 3.06682ZM46.2196 1.65934H49.5828V3.05201H46.2196V1.65934ZM11.9956 1.65934H15.3588V3.05201H11.9956V1.65934ZM39.4637 19.1862L39.1674 23.0382L37.3895 21.2604L39.4637 19.1862ZM42.8713 35.5129V33.1869H50.1606V35.5129H42.8713Z" fill="#00093C"/>
<path d="M15.67 44.4764H4.97315V40.0465C4.97315 37.2316 5.62503 34.4314 6.85473 31.9128C7.53624 30.5349 8.95854 29.646 10.4994 29.646H24.5445C27.478 29.646 30.3374 28.6089 32.5894 26.7273C32.945 26.431 32.9894 25.9125 32.6931 25.5569C32.3968 25.2013 31.8782 25.1569 31.5227 25.4532C29.567 27.0829 27.0928 27.9867 24.5593 27.9867H18.5146C19.448 27.0088 20.0258 25.6902 20.0258 24.2383V21.1715C22.174 21.0233 23.863 19.2455 23.863 17.0676C23.863 14.8008 22.0111 12.9488 19.7443 12.9488C18.3516 12.9192 17.033 13.2452 16.07 14.2971C15.5959 14.8156 14.9144 15.1119 14.2181 15.1119H11.9217C10.0104 15.1119 8.45481 16.6676 8.45481 18.5788V24.8309C8.45481 25.5421 8.61778 26.2384 9.04744 26.8162C9.24004 27.0829 9.47709 27.3051 9.74377 27.4829C10.0401 27.6755 10.4549 27.7496 10.692 27.9867C8.45481 27.9422 6.33619 29.1719 5.35836 31.1868C4.01014 33.9425 3.29899 36.9945 3.29899 40.0614V44.4912H0.82479C0.365508 44.4912 -0.00488281 44.8616 -0.00488281 45.3209C-0.00488281 45.7802 0.365508 46.1506 0.82479 46.1506H15.67C16.1293 46.1506 16.4997 45.7802 16.4997 45.3209C16.5145 44.8468 16.1293 44.4764 15.67 44.4764ZM14.3662 27.957C13.9069 27.9274 13.4477 27.8089 13.0328 27.6163C13.2254 27.5126 13.418 27.394 13.581 27.2607C14.2773 26.6829 14.6625 25.8384 14.6625 24.8754V21.1715H18.3516V24.2235C18.3516 26.2829 16.6775 27.9718 14.6033 27.9718C14.5144 27.9718 14.4403 27.9718 14.3662 27.957ZM10.129 24.8161V18.564C10.129 17.5713 10.9438 16.7565 11.9365 16.7565H14.2181C15.3885 16.7565 16.4997 16.2675 17.2997 15.4082C17.9516 14.6971 18.8405 14.5637 19.7591 14.5934C21.1073 14.5934 22.2037 15.6897 22.2037 17.0379C22.2037 18.3862 21.1073 19.4825 19.7591 19.4825H13.8329C13.3736 19.4825 13.0032 19.8529 13.0032 20.3122V24.8606C13.0032 25.8384 12.1439 26.4458 11.2105 26.2681C10.4697 26.1495 10.129 25.5421 10.129 24.8161Z" fill="#00093C"/>
<path d="M28.5298 12.7267H33.0634C33.5227 12.7267 33.893 12.3563 33.893 11.897V8.83016C33.893 8.37088 33.5227 8.00049 33.0634 8.00049H28.5298C28.0705 8.00049 27.7001 8.37088 27.7001 8.83016V11.897C27.6853 12.3563 28.0557 12.7267 28.5298 12.7267ZM29.3595 9.65983H32.2337V11.0525H29.3595V9.65983Z" fill="#00093C"/>
<path d="M27.6853 18.1046C27.6853 18.5639 28.0557 18.9343 28.515 18.9343H33.0485C33.5078 18.9343 33.8782 18.5639 33.8782 18.1046V15.0378C33.8782 14.5785 33.5078 14.2081 33.0485 14.2081H28.515C28.0557 14.2081 27.6853 14.5785 27.6853 15.0378V18.1046ZM29.3595 15.8823H32.2337V17.275H29.3595V15.8823Z" fill="#00093C"/>
<path d="M36.2044 11.1857H50.9904C51.4497 11.1857 51.82 10.8153 51.82 10.356C51.82 9.89676 51.4497 9.52637 50.9904 9.52637H36.2044C35.7451 9.52637 35.3748 9.89676 35.3748 10.356C35.3748 10.8153 35.7451 11.1857 36.2044 11.1857Z" fill="#00093C"/>
</svg>
